Coordinates
version=1
nRows=14
nColumns=40
inDegrees=yes

Units are S.I. units (second, meters, Newtons, ...)
Angles are in degrees.

endheader
time	pelvis_tilt	pelvis_list	pelvis_rotation	pelvis_tx	pelvis_ty	pelvis_tz	hip_flexion_r	hip_adduction_r	hip_rotation_r	knee_angle_r	knee_angle_r_beta	ankle_angle_r	subtalar_angle_r	mtp_angle_r	hip_flexion_l	hip_adduction_l	hip_rotation_l	knee_angle_l	knee_angle_l_beta	ankle_angle_l	subtalar_angle_l	mtp_angle_l	lumbar_extension	lumbar_bending	lumbar_rotation	arm_flex_r	arm_add_r	arm_rot_r	elbow_flex_r	pro_sup_r	wrist_flex_r	wrist_dev_r	arm_flex_l	arm_add_l	arm_rot_l	elbow_flex_l	pro_sup_l	wrist_flex_l	wrist_dev_l
     22.30000000	     -4.16991174	     -5.06983233	     -2.06893954	      0.96587267	      0.92518882	      0.57345751	     14.72619337	      5.12384768	     -7.51715339	     21.38680200	     21.38680200	     13.18121218	     -0.83526516	     -3.61854417	     22.81584384	    -18.46655822	     -2.09271129	     55.16077212	     55.16077212	      9.31819810	    -19.05519075	     15.39409262	     -9.64037534	      7.28132319	     -0.12656010	      7.15023489	    -11.31339689	     -7.05377797	     24.09815385	     46.59944704	      0.00000000	      0.00000000	     16.94050073	     -9.30413437	     -6.88111936	     48.40080449	     46.05102102	      0.00000000	      0.00000000
     22.32192857	     -3.66163132	     -4.97525010	     -1.36459779	      0.96495898	      0.92327455	      0.57545175	     14.87508406	      5.11375469	     -7.29811937	     23.13572812	     23.13572812	     14.03623180	     -2.53445807	     -3.84668948	     24.40997260	    -17.97896351	     -1.13092891	     57.68318080	     57.68318080	     10.04813923	    -19.14268857	     15.26757588	     -9.95796844	      7.03352559	     -0.35646578	     10.04085203	    -11.41738830	     -7.11953969	     25.30647461	     46.58148976	      0.00000000	      0.00000000	     14.20591666	     -8.90211954	     -6.25585307	     45.27327255	     45.95254294	      0.00000000	      0.00000000
     22.34385714	     -3.14120198	     -4.94260990	     -0.61177058	      0.96389953	      0.92110925	      0.57752721	     15.03700867	      5.21256408	     -7.08091872	     24.92608783	     24.92608783	     14.86806761	     -4.37855850	     -3.88640543	     26.01270470	    -17.52060905	     -0.17603367	     59.95559191	     59.95559191	     10.90723506	    -19.22339224	     15.60330120	    -10.30213873	      6.81265728	     -0.63598393	     13.16065397	    -11.51697584	     -7.16188351	     26.54959147	     46.55998463	      0.00000000	      0.00000000	     11.69897145	     -8.60823525	     -5.45748794	     41.38602238	     45.83570122	      0.00000000	      0.00000000
     22.36578571	     -2.50222174	     -4.99180150	      0.20027306	      0.96290053	      0.91925392	      0.57946250	     14.90044815	      5.46255722	     -6.82017424	     26.41965714	     26.41965714	     15.86967550	     -6.15408892	     -2.91768050	     27.42835813	    -17.07709980	      0.78502201	     61.78023497	     61.78023497	     12.41039489	    -19.26043229	     18.13313400	    -10.71702946	      6.73381145	      0.00451409	     16.12158019	    -12.06499649	     -7.17370776	     27.06105995	     46.56281295	      0.00000000	      0.00000000	     11.01398522	     -7.95258265	     -3.32587317	     33.91325771	     45.62168548	      0.00000000	      0.00000000
     22.38771429	     -2.02847886	     -4.97085756	      1.06332273	      0.96181118	      0.91699986	      0.58115030	     14.97958465	      5.54008611	     -6.93151538	     27.97012651	     27.97012651	     16.64858188	     -7.52707103	     -2.99499565	     28.83298514	    -16.67308974	      1.43098547	     62.84280562	     62.84280562	     12.98620414	    -19.33104235	     18.20754847	    -11.06059868	      6.55547863	     -0.26268711	     19.23717068	    -12.28486915	     -7.38027091	     28.75956949	     46.53114366	      0.00000000	      0.00000000	      8.32540516	     -7.78824432	     -2.77043980	     31.23724960	     45.51941963	      0.00000000	      0.00000000
     22.40964286	     -1.53427007	     -5.00756912	      1.96048705	      0.96078996	      0.91525161	      0.58258090	     14.82705608	      5.74429589	     -6.94766554	     29.13244190	     29.13244190	     17.58883845	     -8.85136498	     -1.83676973	     30.06343287	    -16.31173444	      2.01878291	     63.17757454	     63.17757454	     13.97514383	    -19.37478319	     19.98036241	    -11.32961859	      6.47283543	      0.19007780	     22.04367549	    -12.94753299	     -7.79335155	     30.28080435	     46.50395228	      0.00000000	      0.00000000	      7.12455197	     -7.46104790	     -0.46325863	     25.79809684	     45.22164987	      0.00000000	      0.00000000
     22.43157143	     -1.12451573	     -5.03610494	      2.90806085	      0.95977187	      0.91369840	      0.58363991	     14.63430063	      5.88920016	     -7.18105855	     30.01569511	     30.01569511	     18.10841964	     -9.99750180	     -1.76661808	     31.12196721	    -15.98781823	      2.42645360	     62.57054197	     62.57054197	     14.20009916	    -19.41976725	     20.01452181	    -11.59161593	      6.37360678	     -0.08014998	     25.19542323	    -13.29071970	     -8.03612715	     32.17388886	     46.46362110	      0.00000000	      0.00000000	      4.50110238	     -7.47002992	      0.00929342	     23.97748547	     45.10783394	      0.00000000	      0.00000000
     22.45350000	     -0.80342997	     -5.03019403	      3.85135242	      0.95877558	      0.91270088	      0.58419124	     14.32191195	      5.97457627	     -7.48690256	     30.49318954	     30.49318954	     18.52442559	    -10.99407124	     -1.53047169	     32.01355701	    -15.62519343	      2.66185366	     61.10250658	     61.10250658	     14.24868030	    -19.43776529	     20.13689626	    -11.73377743	      6.32656857	     -0.11043160	     28.25090321	    -13.76116344	     -8.24801903	     34.08672144	     46.41817894	      0.00000000	      0.00000000	      2.10702165	     -7.48564691	      0.59498924	     22.33623079	     44.96683924	      0.00000000	      0.00000000
     22.47542857	     -0.58041608	     -4.98260669	      4.77582790	      0.95776710	      0.91229020	      0.58431845	     13.96647369	      5.97556986	     -7.85176601	     30.69819552	     30.69819552	     18.83472193	    -11.69815374	     -1.31342704	     32.68618410	    -15.20533314	      2.74173717	     58.73845222	     58.73845222	     13.91117313	    -19.41606537	     20.20848474	    -11.80168440	      6.23109084	     -0.05387833	     31.30238627	    -14.45996394	     -8.44425398	     36.04193362	     46.37078488	      0.00000000	      0.00000000	     -0.15594580	     -7.50134391	      1.09381591	     21.12062435	     44.82942619	      0.00000000	      0.00000000
     22.49735714	     -0.50088860	     -4.87789741	      5.66980723	      0.95674829	      0.91246459	      0.58393428	     13.54610282	      5.87612692	     -8.27821156	     30.51233493	     30.51233493	     19.01409787	    -12.15856944	     -0.95575236	     33.16720926	    -14.61922658	      2.80104683	     55.58344260	     55.58344260	     13.07648544	    -19.39129496	     19.80099153	    -11.73000915	      6.10483991	     -0.21145493	     34.32610065	    -14.92043762	     -8.55546223	     38.59013310	     46.29136354	      0.00000000	      0.00000000	     -2.61278376	     -7.62840011	      1.82794229	     20.24394066	     44.62120226	      0.00000000	      0.00000000
     22.51928571	     -0.58275519	     -4.80038670	      6.49187482	      0.95571801	      0.91306560	      0.58316030	     13.19344460	      5.73536986	     -8.82897687	     30.14904716	     30.14904716	     19.36315170	    -12.16679849	      0.02956243	     33.41884740	    -14.08823648	      2.64688887	     51.59296798	     51.59296798	     10.82500354	    -19.32393479	     16.73331863	    -11.52543145	      6.06795274	      0.51331398	     36.11852112	    -16.70490555	     -7.12628788	     43.50493416	     45.91679551	      0.00000000	      0.00000000	     -6.05379337	    -10.07146670	     18.63545324	     24.16582984	     41.50975025	      0.00000000	      0.00000000
     22.54121429	     -0.71941213	     -4.57280886	      7.27090807	      0.95476059	      0.91423865	      0.58181611	     12.68756850	      5.38254920	     -9.44773291	     29.44864078	     29.44864078	     19.24326793	    -12.09194978	     -0.04159601	     33.42354529	    -13.25809428	      2.54534354	     47.20508196	     47.20508196	      8.76111513	    -19.16594440	     15.19843616	    -11.22891997	      5.82408365	      0.38491663	     39.12968637	    -17.23600147	     -7.51097379	     46.27377132	     45.84325243	      0.00000000	      0.00000000	     -8.70448197	    -10.29446532	     18.96636482	     24.86134617	     41.52293191	      0.00000000	      0.00000000
     22.56314286	     -0.96352845	     -4.24324278	      7.88771413	      0.95363800	      0.91606610	      0.58014923	     12.13332835	      4.94159084	     -9.82448449	     28.44399457	     28.44399457	     19.04364544	    -11.92988228	      0.13844460	     33.17494075	    -12.18784661	      2.66524936	     42.43429308	     42.43429308	      6.81570360	    -18.83478628	     15.46223066	    -10.95037933	      5.49490285	      0.69534826	     42.39104066	    -18.04673361	     -7.64867245	     48.19871545	     45.79757381	      0.00000000	      0.00000000	    -10.59448548	    -10.20397773	     19.17429734	     24.80022893	     41.47996433	      0.00000000	      0.00000000
     22.58507143	     -1.17524272	     -4.04657646	      8.41678054	      0.95281349	      0.91782621	      0.57826071	     11.45681767	      4.55413819	    -10.55669793	     27.31688841	     27.31688841	     18.70640656	    -11.19042002	     -0.44353502	     32.51843436	    -11.50775296	      2.38598177	     37.15017931	     37.15017931	      2.17445617	    -18.34048687	      8.64651852	    -10.76975617	      5.33980359	      0.69799658	     44.99270931	    -18.92086395	     -6.67792472	     53.06791777	     45.58744754	      0.00000000	      0.00000000	    -13.70814292	    -10.85337963	     20.43471514	     28.27685252	     41.39096039	      0.00000000	      0.00000000
